{"title":"Amateur black babe getting fucked - homemade[VPSR].flv","uid":10782406,"size":112366846,"categoryP":"porn","categoryS":"other","magnet":"?xt=urn:btih:d415087728cb6c452e567c73f6448c864a8b4908&amp;dn=Amateur+black+babe+getting+fucked+-+homemade%5BVPSR%5D.flv&amp;tr=udp%3A%2F%2Ftracker.openbittorrent.com%3A80&amp;tr=udp%3A%2F%2Fopen.demonii.com%3A1337&amp;tr=udp%3A%2F%2Ftracker.coppersurfer.tk%3A6969&amp;tr=udp%3A%2F%2Fexodus.desync.com%3A6969","seeders":0,"leechers":1,"uploader":"vpsr","files":1,"time":1408183000,"description":"Amateur black babe getting fucked - homemade[VPSR].flv\n\n &lt;a href=&quot;\nhttp://s25.postimg.org/4ynxgbzxb/image.jpg&quot; rel=&quot;nofollow&quot; target=&quot;_NEW&quot;&gt;\nhttp://s25.postimg.org/4ynxgbzxb/image.jpg&lt;/a&gt;\n\n &lt;a href=&quot;\nhttp://s25.postimg.org/3kwal10nz/Amateur_black_babe_getting_fucked_homemade_VPS.jpg&quot; rel=&quot;nofollow&quot; target=&quot;_NEW&quot;&gt;\nhttp://s25.postimg.org/3kwal10nz/Amateur_black_babe_getting_fucked_homemade_VPS.jpg&lt;/a&gt;\n\nFILE INFO\n\nGeneral\nComplete name                            : Amateur black babe getting fucked - homemade[VPSR].flv\nFormat                                   : Flash Video\nFile size                                : 107 MiB\nDuration                                 : 25mn 29s\nOverall bit rate                         : 588 Kbps\n\nVideo\nFormat                                   : AVC\nFormat/Info                              : Advanced Video Codec\nFormat profile                           : &lt;a class=&quot;__cf_email__&quot; href=&quot;/cdn-cgi/l/email-protection&quot; data-cfemail=&quot;9bd3f2fcf3dbd7a9b5ab&quot;&gt;[email&amp;#160;protected]&lt;/a&gt;&lt;script cf-hash='f9e31' type=&quot;text/javascript&quot;&gt;\n/* &lt;![CDATA[ */!function(){try{var t=&quot;currentScript&quot;in document?document.currentScript:function(){for(var t=document.getElementsByTagName(&quot;script&quot;),e=t.length;e--;)if(t[e].getAttribute(&quot;cf-hash&quot;))return t[e]}();if(t&amp;&amp;t.previousSibling){var e,r,n,i,c=t.previousSibling,a=c.getAttribute(&quot;data-cfemail&quot;);if(a){for(e=&quot;&quot;,r=parseInt(a.substr(0,2),16),n=2;a.length-n;n+=2)i=parseInt(a.substr(n,2),16)^r,e+=String.fromCharCode(i);e=document.createTextNode(e),c.parentNode.replaceChild(e,c)}}}catch(u){}}();/* ]]&gt; */&lt;/script&gt;\nFormat settings, CABAC                   : Yes\nFormat settings, ReFrames                : 4 frames\nCodec ID                                 : 7\nDuration                                 : 25mn 29s\nBit rate                                 : 512 Kbps\nWidth                                    : 320 pixels\nHeight                                   : 240 pixels\nDisplay aspect ratio                     : 4:3\nFrame rate mode                          : Constant\nFrame rate                               : 29.970 fps\nColor space                              : YUV\nChroma subsampling                       : 4:2:0\nBit depth                                : 8 bits\nScan type                                : Progressive\nBits/(Pixel*Frame)                       : 0.222\nStream size                              : 93.6 MiB (87%)\nWriting library                          : x264 core 119\n\nAudio\nFormat                                   : AAC\nFormat/Info                              : Advanced Audio Codec\nFormat profile                           : LC\nCodec ID                                 : 10\nDuration                                 : 25mn 29s\nBit rate                                 : 64.9 Kbps\nChannel(s)                               : 2 channels\nChannel positions                        : Front: L R\nSampling rate                            : 48.0 KHz\nCompression mode                         : Lossy\nStream size                              : 11.8 MiB (11%)\n\n","torrent":{"xt":"urn:btih:d415087728cb6c452e567c73f6448c864a8b4908","amp;dn":"Amateur+black+babe+getting+fucked+-+homemade%5BVPSR%5D.flv","amp;tr":["udp%3A%2F%2Ftracker.openbittorrent.com%3A80","udp%3A%2F%2Fopen.demonii.com%3A1337","udp%3A%2F%2Ftracker.coppersurfer.tk%3A6969","udp%3A%2F%2Fexodus.desync.com%3A6969"],"infoHash":"d415087728cb6c452e567c73f6448c864a8b4908","infoHashBuffer":{"type":"Buffer","data":[212,21,8,119,40,203,108,69,46,86,124,115,246,68,140,134,74,139,73,8]},"announce":[],"urlList":[]}}